<?xml version="1.0" encoding="UTF-8"?>
<svg id="Layer_2" data-name="Layer 2" xmlns="http://www.w3.org/2000/svg" viewBox="0 0 382.47 472.55">
  <defs>
    <style>
      .cls-1 {
        fill: #fff;
        stroke: #fff;
        stroke-miterlimit: 10;
        stroke-width: 5px;
      }

      .cls-2 {
        fill: #000;
        stroke-width: 0px;
      }
    </style>
  </defs>
  <g id="big_ben" data-name="big ben">
    <g id="_42_Big_Ben" data-name="42 Big Ben">
      <g>
        <path class="cls-2" d="M52.31,50.87c-2.19,2.16-2.22,5.69-.06,7.89l15.65,15.91c2.17,2.19,5.7,2.22,7.89.06,2.2-2.16,2.22-5.69.06-7.89l-15.65-15.91c-2.14-2.18-5.68-2.24-7.89-.06Z"/>
        <path class="cls-2" d="M8.37,60.24c-2.67-1.55-6.09-.63-7.62,2.04-1.54,2.67-.63,6.08,2.04,7.62l24.45,14.14c2.67,1.54,6.09.62,7.62-2.04,1.54-2.67.63-6.08-2.04-7.62l-24.45-14.14Z"/>
        <path class="cls-2" d="M275.73,223.55c-3.12,0-5.58,2.46-5.58,5.58v11.31h-17.11v-25.97c0-.52-.52-2.31-.89-2.9l-27.31-42.42v-52.98c0-.74-.15-1.49-.45-2.16l-27.61-64.15V5.59c0-3.12-2.46-5.58-5.58-5.58s-5.58,2.46-5.58,5.58v44.28l-27.53,64.15c-.3.67-.45,1.41-.45,2.16v52.98l-27.31,42.42c-.37.6-.89,2.38-.89,2.9,0,1.04-.07,26.79,0,25.97h-17.12v-11.31c0-3.13-2.46-5.58-5.58-5.58s-5.58,2.46-5.58,5.58v159.99c0,11.16,9.08,20.24,20.32,20.24h7.74v57.6c0,3.05,2.53,5.58,5.58,5.58s5.58-2.53,5.58-5.58v-57.6h22.4v57.6c0,3.05,2.53,5.58,5.58,5.58s5.58-2.53,5.58-5.58v-57.6h34.6v57.6c0,3.05,2.45,5.58,5.58,5.58s5.58-2.53,5.58-5.58v-57.6h22.33v57.6c0,3.05,2.53,5.58,5.58,5.58s5.58-2.53,5.58-5.58v-57.6h7.81c11.16,0,20.32-9.08,20.32-20.24v-159.99c0-3.12-2.53-5.58-5.58-5.58ZM168.8,121.75h44.87v43.38h-44.87v-43.38h0ZM140.6,220.21h101.28v20.24h-101.28v-20.24ZM270.15,389.13c0,4.98-4.09,9.08-9.15,9.08H121.17c-4.91-.15-8.85-4.17-8.85-9.08v-137.52h157.83v137.52Z"/>
        <path class="cls-2" d="M112.71,88.17c2.67-1.54,3.58-4.95,2.04-7.62l-7.65-13.26c-1.53-2.66-4.95-3.59-7.62-2.04-2.67,1.54-3.58,4.95-2.04,7.62l7.65,13.26c1.54,2.67,4.96,3.58,7.62,2.04Z"/>
        <path class="cls-2" d="M67.19,107.19l13.26,7.66c2.66,1.54,6.08.63,7.62-2.04,1.54-2.67.62-6.08-2.04-7.62l-13.26-7.66c-2.68-1.55-6.08-.62-7.62,2.04-1.54,2.67-.62,6.08,2.04,7.62Z"/>
        <path class="cls-2" d="M74.41,32.84c1.54,2.67,4.96,3.58,7.62,2.04,2.67-1.54,3.58-4.95,2.04-7.62l-14.11-24.46c-1.53-2.67-4.95-3.59-7.62-2.04-2.67,1.54-3.58,4.95-2.04,7.62l14.11,24.46Z"/>
        <path class="cls-2" d="M282.99,65.25c-2.67-1.55-6.09-.62-7.62,2.04l-7.66,13.26c-1.54,2.67-.62,6.08,2.04,7.62,2.66,1.54,6.08.63,7.62-2.04l7.66-13.26c1.54-2.67.62-6.08-2.04-7.62Z"/>
        <path class="cls-2" d="M294.39,112.81c1.54,2.67,4.96,3.58,7.62,2.04l13.26-7.66c2.67-1.54,3.58-4.96,2.04-7.62-1.54-2.66-4.94-3.59-7.62-2.04l-13.26,7.66c-2.67,1.54-3.58,4.96-2.04,7.62Z"/>
        <path class="cls-2" d="M330.16,50.87c-2.21-2.17-5.74-2.13-7.89.06l-15.65,15.91c-2.17,2.2-2.14,5.73.06,7.89,2.2,2.17,5.73,2.14,7.89-.06l15.65-15.91c2.17-2.2,2.14-5.73-.06-7.89Z"/>
        <path class="cls-2" d="M308.06,32.84l14.11-24.46c1.54-2.67.62-6.08-2.04-7.62-2.67-1.55-6.09-.62-7.62,2.04l-14.11,24.46c-1.54,2.67-.62,6.08,2.04,7.62,2.66,1.54,6.08.63,7.62-2.04Z"/>
        <path class="cls-2" d="M355.23,84.04l24.45-14.14c2.67-1.54,3.58-4.96,2.04-7.62-1.53-2.67-4.95-3.59-7.62-2.04l-24.45,14.14c-2.67,1.54-3.58,4.96-2.04,7.62,1.53,2.67,4.95,3.59,7.62,2.04Z"/>
      </g>
    </g>
    <circle id="small_arrow" data-name="small arrow" class="cls-2" cx="191.24" cy="324.91" r="53.91"/>
    <line id="big_arrow" data-name="big arrow" class="cls-1" x1="191.23" y1="322.38" x2="191.23" y2="286.02"/>
    <line class="cls-1" x1="191.24" y1="322.38" x2="208.61" y2="308.18"/>
  </g>
</svg>